<svg xmlns="http://www.w3.org/2000/svg" fill="none" viewBox="0 0 600 600">
  <rect width="600" height="600" rx="120" fill="#ffffff" />
  <g fill="#000000">
    <g transform="translate(75.220397, 422.743142)">
      <path d="M 14.8125 0 L 143.542969 0 C 148.140625 0 152.226562 -4.085938 152.226562 -8.683594 L 152.226562 -39.84375 C 152.226562 -44.441406 156.316406 -48.527344 160.914062 -48.527344 L 192.074219 -48.527344 C 196.671875 -48.527344 200.757812 -52.617188 200.757812 -57.214844 L 200.757812 -137.414062 C 200.757812 -142.011719 196.671875 -146.097656 192.074219 -146.097656 L 63.34375 -146.097656 C 58.746094 -146.097656 54.660156 -150.183594 54.660156 -154.78125 L 54.660156 -185.941406 C 54.660156 -190.539062 58.746094 -194.628906 63.34375 -194.628906 L 192.074219 -194.628906 C 196.671875 -194.628906 200.757812 -198.714844 200.757812 -203.3125 L 200.757812 -234.472656 C 200.757812 -239.070312 196.671875 -243.15625 192.074219 -243.15625 L 63.34375 -243.15625 C 58.746094 -243.15625 54.660156 -239.070312 54.660156 -234.472656 L 54.660156 -203.3125 C 54.660156 -198.714844 50.574219 -194.628906 45.976562 -194.628906 L 14.8125 -194.628906 C 10.214844 -194.628906 6.128906 -190.539062 6.128906 -185.941406 L 6.128906 -105.742188 C 6.128906 -101.144531 10.214844 -97.058594 14.8125 -97.058594 L 143.542969 -97.058594 C 148.140625 -97.058594 152.226562 -92.972656 152.226562 -88.375 L 152.226562 -57.214844 C 152.226562 -52.617188 148.140625 -48.527344 143.542969 -48.527344 L 14.8125 -48.527344 C 10.214844 -48.527344 6.128906 -44.441406 6.128906 -39.84375 L 6.128906 -8.683594 C 6.128906 -4.085938 10.214844 0 14.8125 0 Z M 14.8125 0" />
    </g>
    <g transform="translate(317.865892, 422.743142)">
      <path d="M 14.8125 0 L 143.542969 0 C 148.140625 0 152.226562 -4.085938 152.226562 -8.683594 L 152.226562 -39.84375 C 152.226562 -44.441406 156.316406 -48.527344 160.914062 -48.527344 L 192.074219 -48.527344 C 196.671875 -48.527344 200.757812 -52.617188 200.757812 -57.214844 L 200.757812 -137.414062 C 200.757812 -142.011719 196.671875 -146.097656 192.074219 -146.097656 L 63.34375 -146.097656 C 58.746094 -146.097656 54.660156 -150.183594 54.660156 -154.78125 L 54.660156 -185.941406 C 54.660156 -190.539062 58.746094 -194.628906 63.34375 -194.628906 L 192.074219 -194.628906 C 196.671875 -194.628906 200.757812 -198.714844 200.757812 -203.3125 L 200.757812 -234.472656 C 200.757812 -239.070312 196.671875 -243.15625 192.074219 -243.15625 L 63.34375 -243.15625 C 58.746094 -243.15625 54.660156 -239.070312 54.660156 -234.472656 L 54.660156 -203.3125 C 54.660156 -198.714844 50.574219 -194.628906 45.976562 -194.628906 L 14.8125 -194.628906 C 10.214844 -194.628906 6.128906 -190.539062 6.128906 -185.941406 L 6.128906 -105.742188 C 6.128906 -101.144531 10.214844 -97.058594 14.8125 -97.058594 L 143.542969 -97.058594 C 148.140625 -97.058594 152.226562 -92.972656 152.226562 -88.375 L 152.226562 -57.214844 C 152.226562 -52.617188 148.140625 -48.527344 143.542969 -48.527344 L 14.8125 -48.527344 C 10.214844 -48.527344 6.128906 -44.441406 6.128906 -39.84375 L 6.128906 -8.683594 C 6.128906 -4.085938 10.214844 0 14.8125 0 Z M 14.8125 0" />
    </g>
  </g>
</svg>
